<!DOCTYPE svg PUBLIC "-//W3C//DTD SVG 1.1//EN" "http://www.w3.org/Graphics/SVG/1.1/DTD/svg11.dtd">
<svg xmlns="http://www.w3.org/2000/svg" xmlns:xlink="http://www.w3.org/1999/xlink" xmlns:jfreesvg="http://www.jfree.org/jfreesvg/svg" width="781" height="1040" text-rendering="auto" shape-rendering="auto">
<defs></defs>
<rect x="0" y="0" width="781" height="1040" style="fill: rgb(255,255,255); fill-opacity: 1.0" transform="matrix(1,0,0,1,0,0)" /><g transform="matrix(1,0,0,1,0,0)"><text x="373" y="13" style="fill: rgb(0,0,0); fill-opacity: 1.0; font-family: Arial; font-size: 10px; font-weight: bold;" >procon</text></g><rect x="20" y="580" width="150" height="100" style="fill: rgb(255,255,0); fill-opacity: 1.0" transform="matrix(1,0,0,1,0,0)" /><line x1="20" y1="580" x2="169" y2="580" style="stroke-width: 1.0;stroke: rgb(0,0,0);stroke-opacity: 1.0;stroke-linecap: square;" transform="matrix(1,0,0,1,0,0)" /><line x1="170" y1="580" x2="170" y2="679" style="stroke-width: 1.0;stroke: rgb(0,0,0);stroke-opacity: 1.0;stroke-linecap: square;" transform="matrix(1,0,0,1,0,0)" /><line x1="170" y1="680" x2="21" y2="680" style="stroke-width: 1.0;stroke: rgb(0,0,0);stroke-opacity: 1.0;stroke-linecap: square;" transform="matrix(1,0,0,1,0,0)" /><line x1="20" y1="680" x2="20" y2="581" style="stroke-width: 1.0;stroke: rgb(0,0,0);stroke-opacity: 1.0;stroke-linecap: square;" transform="matrix(1,0,0,1,0,0)" /><g transform="matrix(1,0,0,1,0,0)"><text x="23" y="593" style="fill: rgb(0,0,0); fill-opacity: 1.0; font-family: Arial; font-size: 10px; font-weight: bold;" >lbl=processoriohv</text></g><g transform="matrix(1,0,0,1,0,0)"><text x="23" y="606" style="fill: rgb(0,0,0); fill-opacity: 1.0; font-family: Arial; font-size: 10px; font-weight: bold;" >enb=true</text></g><g transform="matrix(1,0,0,1,0,0)"><text x="23" y="619" style="fill: rgb(0,0,0); fill-opacity: 1.0; font-family: Arial; font-size: 10px; font-weight: bold;" >pIn=2.4W</text></g><g transform="matrix(1,0,0,1,0,0)"><text x="23" y="632" style="fill: rgb(0,0,0); fill-opacity: 1.0; font-family: Arial; font-size: 10px; font-weight: bold;" >iIn=493.8mA</text></g><g transform="matrix(1,0,0,1,0,0)"><text x="23" y="645" style="fill: rgb(0,0,0); fill-opacity: 1.0; font-family: Arial; font-size: 10px; font-weight: bold;" >res=10.0Ohm</text></g><line x1="95" y1="580" x2="95" y2="560" style="stroke-width: 1.0;stroke: rgb(0,0,0);stroke-opacity: 1.0;stroke-linecap: square;" transform="matrix(1,0,0,1,0,0)" /><line x1="95" y1="560" x2="95" y2="560" style="stroke-width: 1.0;stroke: rgb(0,0,0);stroke-opacity: 1.0;stroke-linecap: square;" transform="matrix(1,0,0,1,0,0)" /><line x1="95" y1="560" x2="95" y2="540" style="stroke-width: 1.0;stroke: rgb(0,0,0);stroke-opacity: 1.0;stroke-linecap: square;" transform="matrix(1,0,0,1,0,0)" /><rect x="210" y="580" width="150" height="100" style="fill: rgb(255,255,0); fill-opacity: 1.0" transform="matrix(1,0,0,1,0,0)" /><line x1="210" y1="580" x2="359" y2="580" style="stroke-width: 1.0;stroke: rgb(0,0,0);stroke-opacity: 1.0;stroke-linecap: square;" transform="matrix(1,0,0,1,0,0)" /><line x1="360" y1="580" x2="360" y2="679" style="stroke-width: 1.0;stroke: rgb(0,0,0);stroke-opacity: 1.0;stroke-linecap: square;" transform="matrix(1,0,0,1,0,0)" /><line x1="360" y1="680" x2="211" y2="680" style="stroke-width: 1.0;stroke: rgb(0,0,0);stroke-opacity: 1.0;stroke-linecap: square;" transform="matrix(1,0,0,1,0,0)" /><line x1="210" y1="680" x2="210" y2="581" style="stroke-width: 1.0;stroke: rgb(0,0,0);stroke-opacity: 1.0;stroke-linecap: square;" transform="matrix(1,0,0,1,0,0)" /><g transform="matrix(1,0,0,1,0,0)"><text x="213" y="593" style="fill: rgb(0,0,0); fill-opacity: 1.0; font-family: Arial; font-size: 10px; font-weight: bold;" >lbl=r2</text></g><g transform="matrix(1,0,0,1,0,0)"><text x="213" y="606" style="fill: rgb(0,0,0); fill-opacity: 1.0; font-family: Arial; font-size: 10px; font-weight: bold;" >enb=true</text></g><g transform="matrix(1,0,0,1,0,0)"><text x="213" y="619" style="fill: rgb(0,0,0); fill-opacity: 1.0; font-family: Arial; font-size: 10px; font-weight: bold;" >pIn=812.7mW</text></g><g transform="matrix(1,0,0,1,0,0)"><text x="213" y="632" style="fill: rgb(0,0,0); fill-opacity: 1.0; font-family: Arial; font-size: 10px; font-weight: bold;" >iIn=164.6mA</text></g><g transform="matrix(1,0,0,1,0,0)"><text x="213" y="645" style="fill: rgb(0,0,0); fill-opacity: 1.0; font-family: Arial; font-size: 10px; font-weight: bold;" >res=30.0Ohm</text></g><line x1="285" y1="580" x2="285" y2="560" style="stroke-width: 1.0;stroke: rgb(0,0,0);stroke-opacity: 1.0;stroke-linecap: square;" transform="matrix(1,0,0,1,0,0)" /><line x1="285" y1="560" x2="95" y2="560" style="stroke-width: 1.0;stroke: rgb(0,0,0);stroke-opacity: 1.0;stroke-linecap: square;" transform="matrix(1,0,0,1,0,0)" /><line x1="95" y1="560" x2="95" y2="540" style="stroke-width: 1.0;stroke: rgb(0,0,0);stroke-opacity: 1.0;stroke-linecap: square;" transform="matrix(1,0,0,1,0,0)" /><g style="fill: rgb(128,128,128); fill-opacity: 1.0; stroke: none" transform="matrix(1,0,0,1,0,0)" ><path d="M 20 490 L 20 490 C 20 517.61 53.58 540 95 540 L 95 540 C 136.42 540 170 517.61 170 490 L 170 490 C 170 462.39 136.42 440 95 440 L 95 440 C 53.58 440 20 462.39 20 490 Z "/></g><g style="stroke-width: 1.0;stroke: rgb(0,0,0);stroke-opacity: 1.0;stroke-linecap: square;; fill: none" transform="matrix(1,0,0,1,0,0)" ><path d="M 20 490 L 20 490 C 20 517.61 53.58 540 95 540 L 95 540 C 136.42 540 170 517.61 170 490 L 170 490 C 170 462.39 136.42 440 95 440 L 95 440 C 53.58 440 20 462.39 20 490 Z "/></g><g transform="matrix(1,0,0,1,0,0)"><text x="70" y="483" style="fill: rgb(0,0,0); fill-opacity: 1.0; font-family: Arial; font-size: 10px; font-weight: bold;" >lbl=output</text></g><g transform="matrix(1,0,0,1,0,0)"><text x="74" y="496" style="fill: rgb(0,0,0); fill-opacity: 1.0; font-family: Arial; font-size: 10px; font-weight: bold;" >vol=4.9V</text></g><g transform="matrix(1,0,0,1,0,0)"><text x="65" y="509" style="fill: rgb(0,0,0); fill-opacity: 1.0; font-family: Arial; font-size: 10px; font-weight: bold;" >cap=100.0uF</text></g><line x1="95" y1="440" x2="95" y2="420" style="stroke-width: 1.0;stroke: rgb(0,0,0);stroke-opacity: 1.0;stroke-linecap: square;" transform="matrix(1,0,0,1,0,0)" /><line x1="95" y1="420" x2="95" y2="420" style="stroke-width: 1.0;stroke: rgb(0,0,0);stroke-opacity: 1.0;stroke-linecap: square;" transform="matrix(1,0,0,1,0,0)" /><line x1="95" y1="420" x2="95" y2="400" style="stroke-width: 1.0;stroke: rgb(0,0,0);stroke-opacity: 1.0;stroke-linecap: square;" transform="matrix(1,0,0,1,0,0)" /><rect x="20" y="300" width="150" height="100" style="fill: rgb(0,255,0); fill-opacity: 1.0" transform="matrix(1,0,0,1,0,0)" /><line x1="20" y1="300" x2="169" y2="300" style="stroke-width: 1.0;stroke: rgb(0,0,0);stroke-opacity: 1.0;stroke-linecap: square;" transform="matrix(1,0,0,1,0,0)" /><line x1="170" y1="300" x2="170" y2="399" style="stroke-width: 1.0;stroke: rgb(0,0,0);stroke-opacity: 1.0;stroke-linecap: square;" transform="matrix(1,0,0,1,0,0)" /><line x1="170" y1="400" x2="21" y2="400" style="stroke-width: 1.0;stroke: rgb(0,0,0);stroke-opacity: 1.0;stroke-linecap: square;" transform="matrix(1,0,0,1,0,0)" /><line x1="20" y1="400" x2="20" y2="301" style="stroke-width: 1.0;stroke: rgb(0,0,0);stroke-opacity: 1.0;stroke-linecap: square;" transform="matrix(1,0,0,1,0,0)" /><g transform="matrix(1,0,0,1,0,0)"><text x="23" y="313" style="fill: rgb(0,0,0); fill-opacity: 1.0; font-family: Arial; font-size: 10px; font-weight: bold;" >lbl=u1</text></g><g transform="matrix(1,0,0,1,0,0)"><text x="23" y="326" style="fill: rgb(0,0,0); fill-opacity: 1.0; font-family: Arial; font-size: 10px; font-weight: bold;" >enb=true</text></g><g transform="matrix(1,0,0,1,0,0)"><text x="23" y="339" style="fill: rgb(0,0,0); fill-opacity: 1.0; font-family: Arial; font-size: 10px; font-weight: bold;" >pIn=7.9W</text></g><g transform="matrix(1,0,0,1,0,0)"><text x="23" y="352" style="fill: rgb(0,0,0); fill-opacity: 1.0; font-family: Arial; font-size: 10px; font-weight: bold;" >pOut=3.3W</text></g><g transform="matrix(1,0,0,1,0,0)"><text x="23" y="365" style="fill: rgb(0,0,0); fill-opacity: 1.0; font-family: Arial; font-size: 10px; font-weight: bold;" >iIn=659.4mA</text></g><g transform="matrix(1,0,0,1,0,0)"><text x="23" y="378" style="fill: rgb(0,0,0); fill-opacity: 1.0; font-family: Arial; font-size: 10px; font-weight: bold;" >iOut=658.4mA</text></g><g transform="matrix(1,0,0,1,0,0)"><text x="23" y="391" style="fill: rgb(0,0,0); fill-opacity: 1.0; font-family: Arial; font-size: 10px; font-weight: bold;" >vTgt=5.0V</text></g><line x1="95" y1="300" x2="95" y2="280" style="stroke-width: 1.0;stroke: rgb(0,0,0);stroke-opacity: 1.0;stroke-linecap: square;" transform="matrix(1,0,0,1,0,0)" /><line x1="95" y1="280" x2="95" y2="280" style="stroke-width: 1.0;stroke: rgb(0,0,0);stroke-opacity: 1.0;stroke-linecap: square;" transform="matrix(1,0,0,1,0,0)" /><line x1="95" y1="280" x2="95" y2="260" style="stroke-width: 1.0;stroke: rgb(0,0,0);stroke-opacity: 1.0;stroke-linecap: square;" transform="matrix(1,0,0,1,0,0)" /><rect x="400" y="860" width="150" height="100" style="fill: rgb(255,255,0); fill-opacity: 1.0" transform="matrix(1,0,0,1,0,0)" /><line x1="400" y1="860" x2="549" y2="860" style="stroke-width: 1.0;stroke: rgb(0,0,0);stroke-opacity: 1.0;stroke-linecap: square;" transform="matrix(1,0,0,1,0,0)" /><line x1="550" y1="860" x2="550" y2="959" style="stroke-width: 1.0;stroke: rgb(0,0,0);stroke-opacity: 1.0;stroke-linecap: square;" transform="matrix(1,0,0,1,0,0)" /><line x1="550" y1="960" x2="401" y2="960" style="stroke-width: 1.0;stroke: rgb(0,0,0);stroke-opacity: 1.0;stroke-linecap: square;" transform="matrix(1,0,0,1,0,0)" /><line x1="400" y1="960" x2="400" y2="861" style="stroke-width: 1.0;stroke: rgb(0,0,0);stroke-opacity: 1.0;stroke-linecap: square;" transform="matrix(1,0,0,1,0,0)" /><g transform="matrix(1,0,0,1,0,0)"><text x="403" y="873" style="fill: rgb(0,0,0); fill-opacity: 1.0; font-family: Arial; font-size: 10px; font-weight: bold;" >lbl=processorcore</text></g><g transform="matrix(1,0,0,1,0,0)"><text x="403" y="886" style="fill: rgb(0,0,0); fill-opacity: 1.0; font-family: Arial; font-size: 10px; font-weight: bold;" >enb=true</text></g><g transform="matrix(1,0,0,1,0,0)"><text x="403" y="899" style="fill: rgb(0,0,0); fill-opacity: 1.0; font-family: Arial; font-size: 10px; font-weight: bold;" >pIn=21.6mW</text></g><g transform="matrix(1,0,0,1,0,0)"><text x="403" y="912" style="fill: rgb(0,0,0); fill-opacity: 1.0; font-family: Arial; font-size: 10px; font-weight: bold;" >iIn=12.0mA</text></g><g transform="matrix(1,0,0,1,0,0)"><text x="403" y="925" style="fill: rgb(0,0,0); fill-opacity: 1.0; font-family: Arial; font-size: 10px; font-weight: bold;" >res=150.0Ohm</text></g><line x1="475" y1="860" x2="475" y2="840" style="stroke-width: 1.0;stroke: rgb(0,0,0);stroke-opacity: 1.0;stroke-linecap: square;" transform="matrix(1,0,0,1,0,0)" /><line x1="475" y1="840" x2="475" y2="840" style="stroke-width: 1.0;stroke: rgb(0,0,0);stroke-opacity: 1.0;stroke-linecap: square;" transform="matrix(1,0,0,1,0,0)" /><line x1="475" y1="840" x2="475" y2="820" style="stroke-width: 1.0;stroke: rgb(0,0,0);stroke-opacity: 1.0;stroke-linecap: square;" transform="matrix(1,0,0,1,0,0)" /><g style="fill: rgb(128,128,128); fill-opacity: 1.0; stroke: none" transform="matrix(1,0,0,1,0,0)" ><path d="M 400 770 L 400 770 C 400 797.61 433.58 820 475 820 L 475 820 C 516.42 820 550 797.61 550 770 L 550 770 C 550 742.39 516.42 720 475 720 L 475 720 C 433.58 720 400 742.39 400 770 Z "/></g><g style="stroke-width: 1.0;stroke: rgb(0,0,0);stroke-opacity: 1.0;stroke-linecap: square;; fill: none" transform="matrix(1,0,0,1,0,0)" ><path d="M 400 770 L 400 770 C 400 797.61 433.58 820 475 820 L 475 820 C 516.42 820 550 797.61 550 770 L 550 770 C 550 742.39 516.42 720 475 720 L 475 720 C 433.58 720 400 742.39 400 770 Z "/></g><g transform="matrix(1,0,0,1,0,0)"><text x="448" y="763" style="fill: rgb(0,0,0); fill-opacity: 1.0; font-family: Arial; font-size: 10px; font-weight: bold;" >lbl=output2</text></g><g transform="matrix(1,0,0,1,0,0)"><text x="454" y="776" style="fill: rgb(0,0,0); fill-opacity: 1.0; font-family: Arial; font-size: 10px; font-weight: bold;" >vol=1.8V</text></g><g transform="matrix(1,0,0,1,0,0)"><text x="445" y="789" style="fill: rgb(0,0,0); fill-opacity: 1.0; font-family: Arial; font-size: 10px; font-weight: bold;" >cap=100.0uF</text></g><line x1="475" y1="720" x2="475" y2="700" style="stroke-width: 1.0;stroke: rgb(0,0,0);stroke-opacity: 1.0;stroke-linecap: square;" transform="matrix(1,0,0,1,0,0)" /><line x1="475" y1="700" x2="475" y2="700" style="stroke-width: 1.0;stroke: rgb(0,0,0);stroke-opacity: 1.0;stroke-linecap: square;" transform="matrix(1,0,0,1,0,0)" /><line x1="475" y1="700" x2="475" y2="680" style="stroke-width: 1.0;stroke: rgb(0,0,0);stroke-opacity: 1.0;stroke-linecap: square;" transform="matrix(1,0,0,1,0,0)" /><rect x="400" y="580" width="150" height="100" style="fill: rgb(0,255,0); fill-opacity: 1.0" transform="matrix(1,0,0,1,0,0)" /><line x1="400" y1="580" x2="549" y2="580" style="stroke-width: 1.0;stroke: rgb(0,0,0);stroke-opacity: 1.0;stroke-linecap: square;" transform="matrix(1,0,0,1,0,0)" /><line x1="550" y1="580" x2="550" y2="679" style="stroke-width: 1.0;stroke: rgb(0,0,0);stroke-opacity: 1.0;stroke-linecap: square;" transform="matrix(1,0,0,1,0,0)" /><line x1="550" y1="680" x2="401" y2="680" style="stroke-width: 1.0;stroke: rgb(0,0,0);stroke-opacity: 1.0;stroke-linecap: square;" transform="matrix(1,0,0,1,0,0)" /><line x1="400" y1="680" x2="400" y2="581" style="stroke-width: 1.0;stroke: rgb(0,0,0);stroke-opacity: 1.0;stroke-linecap: square;" transform="matrix(1,0,0,1,0,0)" /><g transform="matrix(1,0,0,1,0,0)"><text x="403" y="593" style="fill: rgb(0,0,0); fill-opacity: 1.0; font-family: Arial; font-size: 10px; font-weight: bold;" >lbl=u3</text></g><g transform="matrix(1,0,0,1,0,0)"><text x="403" y="606" style="fill: rgb(0,0,0); fill-opacity: 1.0; font-family: Arial; font-size: 10px; font-weight: bold;" >enb=true</text></g><g transform="matrix(1,0,0,1,0,0)"><text x="403" y="619" style="fill: rgb(0,0,0); fill-opacity: 1.0; font-family: Arial; font-size: 10px; font-weight: bold;" >pIn=42.9mW</text></g><g transform="matrix(1,0,0,1,0,0)"><text x="403" y="632" style="fill: rgb(0,0,0); fill-opacity: 1.0; font-family: Arial; font-size: 10px; font-weight: bold;" >pOut=21.6mW</text></g><g transform="matrix(1,0,0,1,0,0)"><text x="403" y="645" style="fill: rgb(0,0,0); fill-opacity: 1.0; font-family: Arial; font-size: 10px; font-weight: bold;" >iIn=13.0mA</text></g><g transform="matrix(1,0,0,1,0,0)"><text x="403" y="658" style="fill: rgb(0,0,0); fill-opacity: 1.0; font-family: Arial; font-size: 10px; font-weight: bold;" >iOut=12.0mA</text></g><g transform="matrix(1,0,0,1,0,0)"><text x="403" y="671" style="fill: rgb(0,0,0); fill-opacity: 1.0; font-family: Arial; font-size: 10px; font-weight: bold;" >vTgt=1.8V</text></g><line x1="475" y1="580" x2="475" y2="560" style="stroke-width: 1.0;stroke: rgb(0,0,0);stroke-opacity: 1.0;stroke-linecap: square;" transform="matrix(1,0,0,1,0,0)" /><line x1="475" y1="560" x2="475" y2="560" style="stroke-width: 1.0;stroke: rgb(0,0,0);stroke-opacity: 1.0;stroke-linecap: square;" transform="matrix(1,0,0,1,0,0)" /><line x1="475" y1="560" x2="475" y2="540" style="stroke-width: 1.0;stroke: rgb(0,0,0);stroke-opacity: 1.0;stroke-linecap: square;" transform="matrix(1,0,0,1,0,0)" /><rect x="590" y="580" width="150" height="100" style="fill: rgb(255,255,0); fill-opacity: 1.0" transform="matrix(1,0,0,1,0,0)" /><line x1="590" y1="580" x2="739" y2="580" style="stroke-width: 1.0;stroke: rgb(0,0,0);stroke-opacity: 1.0;stroke-linecap: square;" transform="matrix(1,0,0,1,0,0)" /><line x1="740" y1="580" x2="740" y2="679" style="stroke-width: 1.0;stroke: rgb(0,0,0);stroke-opacity: 1.0;stroke-linecap: square;" transform="matrix(1,0,0,1,0,0)" /><line x1="740" y1="680" x2="591" y2="680" style="stroke-width: 1.0;stroke: rgb(0,0,0);stroke-opacity: 1.0;stroke-linecap: square;" transform="matrix(1,0,0,1,0,0)" /><line x1="590" y1="680" x2="590" y2="581" style="stroke-width: 1.0;stroke: rgb(0,0,0);stroke-opacity: 1.0;stroke-linecap: square;" transform="matrix(1,0,0,1,0,0)" /><g transform="matrix(1,0,0,1,0,0)"><text x="593" y="593" style="fill: rgb(0,0,0); fill-opacity: 1.0; font-family: Arial; font-size: 10px; font-weight: bold;" >lbl=processoriolv</text></g><g transform="matrix(1,0,0,1,0,0)"><text x="593" y="606" style="fill: rgb(0,0,0); fill-opacity: 1.0; font-family: Arial; font-size: 10px; font-weight: bold;" >enb=true</text></g><g transform="matrix(1,0,0,1,0,0)"><text x="593" y="619" style="fill: rgb(0,0,0); fill-opacity: 1.0; font-family: Arial; font-size: 10px; font-weight: bold;" >pIn=36.3mW</text></g><g transform="matrix(1,0,0,1,0,0)"><text x="593" y="632" style="fill: rgb(0,0,0); fill-opacity: 1.0; font-family: Arial; font-size: 10px; font-weight: bold;" >iIn=11.0mA</text></g><g transform="matrix(1,0,0,1,0,0)"><text x="593" y="645" style="fill: rgb(0,0,0); fill-opacity: 1.0; font-family: Arial; font-size: 10px; font-weight: bold;" >res=300.0Ohm</text></g><line x1="665" y1="580" x2="665" y2="560" style="stroke-width: 1.0;stroke: rgb(0,0,0);stroke-opacity: 1.0;stroke-linecap: square;" transform="matrix(1,0,0,1,0,0)" /><line x1="665" y1="560" x2="475" y2="560" style="stroke-width: 1.0;stroke: rgb(0,0,0);stroke-opacity: 1.0;stroke-linecap: square;" transform="matrix(1,0,0,1,0,0)" /><line x1="475" y1="560" x2="475" y2="540" style="stroke-width: 1.0;stroke: rgb(0,0,0);stroke-opacity: 1.0;stroke-linecap: square;" transform="matrix(1,0,0,1,0,0)" /><g style="fill: rgb(128,128,128); fill-opacity: 1.0; stroke: none" transform="matrix(1,0,0,1,0,0)" ><path d="M 400 490 L 400 490 C 400 517.61 433.58 540 475 540 L 475 540 C 516.42 540 550 517.61 550 490 L 550 490 C 550 462.39 516.42 440 475 440 L 475 440 C 433.58 440 400 462.39 400 490 Z "/></g><g style="stroke-width: 1.0;stroke: rgb(0,0,0);stroke-opacity: 1.0;stroke-linecap: square;; fill: none" transform="matrix(1,0,0,1,0,0)" ><path d="M 400 490 L 400 490 C 400 517.61 433.58 540 475 540 L 475 540 C 516.42 540 550 517.61 550 490 L 550 490 C 550 462.39 516.42 440 475 440 L 475 440 C 433.58 440 400 462.39 400 490 Z "/></g><g transform="matrix(1,0,0,1,0,0)"><text x="447" y="483" style="fill: rgb(0,0,0); fill-opacity: 1.0; font-family: Arial; font-size: 10px; font-weight: bold;" >lbl=medium</text></g><g transform="matrix(1,0,0,1,0,0)"><text x="454" y="496" style="fill: rgb(0,0,0); fill-opacity: 1.0; font-family: Arial; font-size: 10px; font-weight: bold;" >vol=3.3V</text></g><g transform="matrix(1,0,0,1,0,0)"><text x="445" y="509" style="fill: rgb(0,0,0); fill-opacity: 1.0; font-family: Arial; font-size: 10px; font-weight: bold;" >cap=100.0uF</text></g><line x1="475" y1="440" x2="475" y2="420" style="stroke-width: 1.0;stroke: rgb(0,0,0);stroke-opacity: 1.0;stroke-linecap: square;" transform="matrix(1,0,0,1,0,0)" /><line x1="475" y1="420" x2="475" y2="420" style="stroke-width: 1.0;stroke: rgb(0,0,0);stroke-opacity: 1.0;stroke-linecap: square;" transform="matrix(1,0,0,1,0,0)" /><line x1="475" y1="420" x2="475" y2="400" style="stroke-width: 1.0;stroke: rgb(0,0,0);stroke-opacity: 1.0;stroke-linecap: square;" transform="matrix(1,0,0,1,0,0)" /><rect x="400" y="300" width="150" height="100" style="fill: rgb(0,255,0); fill-opacity: 1.0" transform="matrix(1,0,0,1,0,0)" /><line x1="400" y1="300" x2="549" y2="300" style="stroke-width: 1.0;stroke: rgb(0,0,0);stroke-opacity: 1.0;stroke-linecap: square;" transform="matrix(1,0,0,1,0,0)" /><line x1="550" y1="300" x2="550" y2="399" style="stroke-width: 1.0;stroke: rgb(0,0,0);stroke-opacity: 1.0;stroke-linecap: square;" transform="matrix(1,0,0,1,0,0)" /><line x1="550" y1="400" x2="401" y2="400" style="stroke-width: 1.0;stroke: rgb(0,0,0);stroke-opacity: 1.0;stroke-linecap: square;" transform="matrix(1,0,0,1,0,0)" /><line x1="400" y1="400" x2="400" y2="301" style="stroke-width: 1.0;stroke: rgb(0,0,0);stroke-opacity: 1.0;stroke-linecap: square;" transform="matrix(1,0,0,1,0,0)" /><g transform="matrix(1,0,0,1,0,0)"><text x="403" y="313" style="fill: rgb(0,0,0); fill-opacity: 1.0; font-family: Arial; font-size: 10px; font-weight: bold;" >lbl=u2</text></g><g transform="matrix(1,0,0,1,0,0)"><text x="403" y="326" style="fill: rgb(0,0,0); fill-opacity: 1.0; font-family: Arial; font-size: 10px; font-weight: bold;" >enb=true</text></g><g transform="matrix(1,0,0,1,0,0)"><text x="403" y="339" style="fill: rgb(0,0,0); fill-opacity: 1.0; font-family: Arial; font-size: 10px; font-weight: bold;" >pIn=11.9mW</text></g><g transform="matrix(1,0,0,1,0,0)"><text x="403" y="352" style="fill: rgb(0,0,0); fill-opacity: 1.0; font-family: Arial; font-size: 10px; font-weight: bold;" >pOut=0.0W</text></g><g transform="matrix(1,0,0,1,0,0)"><text x="403" y="365" style="fill: rgb(0,0,0); fill-opacity: 1.0; font-family: Arial; font-size: 10px; font-weight: bold;" >iIn=1.0mA</text></g><g transform="matrix(1,0,0,1,0,0)"><text x="403" y="378" style="fill: rgb(0,0,0); fill-opacity: 1.0; font-family: Arial; font-size: 10px; font-weight: bold;" >iOut=0.0A</text></g><g transform="matrix(1,0,0,1,0,0)"><text x="403" y="391" style="fill: rgb(0,0,0); fill-opacity: 1.0; font-family: Arial; font-size: 10px; font-weight: bold;" >vTgt=3.3V</text></g><line x1="475" y1="300" x2="475" y2="280" style="stroke-width: 1.0;stroke: rgb(0,0,0);stroke-opacity: 1.0;stroke-linecap: square;" transform="matrix(1,0,0,1,0,0)" /><line x1="475" y1="280" x2="95" y2="280" style="stroke-width: 1.0;stroke: rgb(0,0,0);stroke-opacity: 1.0;stroke-linecap: square;" transform="matrix(1,0,0,1,0,0)" /><line x1="95" y1="280" x2="95" y2="260" style="stroke-width: 1.0;stroke: rgb(0,0,0);stroke-opacity: 1.0;stroke-linecap: square;" transform="matrix(1,0,0,1,0,0)" /><g style="fill: rgb(128,128,128); fill-opacity: 1.0; stroke: none" transform="matrix(1,0,0,1,0,0)" ><path d="M 20 210 L 20 210 C 20 237.61 53.58 260 95 260 L 95 260 C 136.42 260 170 237.61 170 210 L 170 210 C 170 182.39 136.42 160 95 160 L 95 160 C 53.58 160 20 182.39 20 210 Z "/></g><g style="stroke-width: 1.0;stroke: rgb(0,0,0);stroke-opacity: 1.0;stroke-linecap: square;; fill: none" transform="matrix(1,0,0,1,0,0)" ><path d="M 20 210 L 20 210 C 20 237.61 53.58 260 95 260 L 95 260 C 136.42 260 170 237.61 170 210 L 170 210 C 170 182.39 136.42 160 95 160 L 95 160 C 53.58 160 20 182.39 20 210 Z "/></g><g transform="matrix(1,0,0,1,0,0)"><text x="74" y="203" style="fill: rgb(0,0,0); fill-opacity: 1.0; font-family: Arial; font-size: 10px; font-weight: bold;" >lbl=input</text></g><g transform="matrix(1,0,0,1,0,0)"><text x="72" y="216" style="fill: rgb(0,0,0); fill-opacity: 1.0; font-family: Arial; font-size: 10px; font-weight: bold;" >vol=11.9V</text></g><g transform="matrix(1,0,0,1,0,0)"><text x="65" y="229" style="fill: rgb(0,0,0); fill-opacity: 1.0; font-family: Arial; font-size: 10px; font-weight: bold;" >cap=100.0uF</text></g><line x1="95" y1="160" x2="95" y2="140" style="stroke-width: 1.0;stroke: rgb(0,0,0);stroke-opacity: 1.0;stroke-linecap: square;" transform="matrix(1,0,0,1,0,0)" /><line x1="95" y1="140" x2="95" y2="140" style="stroke-width: 1.0;stroke: rgb(0,0,0);stroke-opacity: 1.0;stroke-linecap: square;" transform="matrix(1,0,0,1,0,0)" /><line x1="95" y1="140" x2="95" y2="120" style="stroke-width: 1.0;stroke: rgb(0,0,0);stroke-opacity: 1.0;stroke-linecap: square;" transform="matrix(1,0,0,1,0,0)" /><rect x="20" y="20" width="150" height="100" style="fill: rgb(0,255,255); fill-opacity: 1.0" transform="matrix(1,0,0,1,0,0)" /><line x1="20" y1="20" x2="169" y2="20" style="stroke-width: 1.0;stroke: rgb(0,0,0);stroke-opacity: 1.0;stroke-linecap: square;" transform="matrix(1,0,0,1,0,0)" /><line x1="170" y1="20" x2="170" y2="119" style="stroke-width: 1.0;stroke: rgb(0,0,0);stroke-opacity: 1.0;stroke-linecap: square;" transform="matrix(1,0,0,1,0,0)" /><line x1="170" y1="120" x2="21" y2="120" style="stroke-width: 1.0;stroke: rgb(0,0,0);stroke-opacity: 1.0;stroke-linecap: square;" transform="matrix(1,0,0,1,0,0)" /><line x1="20" y1="120" x2="20" y2="21" style="stroke-width: 1.0;stroke: rgb(0,0,0);stroke-opacity: 1.0;stroke-linecap: square;" transform="matrix(1,0,0,1,0,0)" /><g transform="matrix(1,0,0,1,0,0)"><text x="23" y="33" style="fill: rgb(0,0,0); fill-opacity: 1.0; font-family: Arial; font-size: 10px; font-weight: bold;" >lbl=v1</text></g><g transform="matrix(1,0,0,1,0,0)"><text x="23" y="46" style="fill: rgb(0,0,0); fill-opacity: 1.0; font-family: Arial; font-size: 10px; font-weight: bold;" >enb=true</text></g><g transform="matrix(1,0,0,1,0,0)"><text x="23" y="59" style="fill: rgb(0,0,0); fill-opacity: 1.0; font-family: Arial; font-size: 10px; font-weight: bold;" >pOut=9.0W</text></g><g transform="matrix(1,0,0,1,0,0)"><text x="23" y="72" style="fill: rgb(0,0,0); fill-opacity: 1.0; font-family: Arial; font-size: 10px; font-weight: bold;" >iOut=753.8mA</text></g><g transform="matrix(1,0,0,1,0,0)"><text x="23" y="85" style="fill: rgb(0,0,0); fill-opacity: 1.0; font-family: Arial; font-size: 10px; font-weight: bold;" >vTgt=12.0V</text></g><g style="fill: rgb(128,128,128); fill-opacity: 1.0; stroke: none" transform="matrix(1,0,0,1,0,0)" ><path d="M 20 210 L 20 210 C 20 237.61 53.58 260 95 260 L 95 260 C 136.42 260 170 237.61 170 210 L 170 210 C 170 182.39 136.42 160 95 160 L 95 160 C 53.58 160 20 182.39 20 210 Z "/></g><g style="stroke-width: 1.0;stroke: rgb(0,0,0);stroke-opacity: 1.0;stroke-linecap: square;; fill: none" transform="matrix(1,0,0,1,0,0)" ><path d="M 20 210 L 20 210 C 20 237.61 53.58 260 95 260 L 95 260 C 136.42 260 170 237.61 170 210 L 170 210 C 170 182.39 136.42 160 95 160 L 95 160 C 53.58 160 20 182.39 20 210 Z "/></g><g transform="matrix(1,0,0,1,0,0)"><text x="74" y="203" style="fill: rgb(0,0,0); fill-opacity: 1.0; font-family: Arial; font-size: 10px; font-weight: bold;" >lbl=input</text></g><g transform="matrix(1,0,0,1,0,0)"><text x="72" y="216" style="fill: rgb(0,0,0); fill-opacity: 1.0; font-family: Arial; font-size: 10px; font-weight: bold;" >vol=11.9V</text></g><g transform="matrix(1,0,0,1,0,0)"><text x="65" y="229" style="fill: rgb(0,0,0); fill-opacity: 1.0; font-family: Arial; font-size: 10px; font-weight: bold;" >cap=100.0uF</text></g><line x1="95" y1="160" x2="95" y2="140" style="stroke-width: 1.0;stroke: rgb(0,0,0);stroke-opacity: 1.0;stroke-linecap: square;" transform="matrix(1,0,0,1,0,0)" /><line x1="95" y1="140" x2="285" y2="140" style="stroke-width: 1.0;stroke: rgb(0,0,0);stroke-opacity: 1.0;stroke-linecap: square;" transform="matrix(1,0,0,1,0,0)" /><line x1="285" y1="140" x2="285" y2="120" style="stroke-width: 1.0;stroke: rgb(0,0,0);stroke-opacity: 1.0;stroke-linecap: square;" transform="matrix(1,0,0,1,0,0)" /><rect x="210" y="20" width="150" height="100" style="fill: rgb(0,255,255); fill-opacity: 1.0" transform="matrix(1,0,0,1,0,0)" /><line x1="210" y1="20" x2="359" y2="20" style="stroke-width: 1.0;stroke: rgb(0,0,0);stroke-opacity: 1.0;stroke-linecap: square;" transform="matrix(1,0,0,1,0,0)" /><line x1="360" y1="20" x2="360" y2="119" style="stroke-width: 1.0;stroke: rgb(0,0,0);stroke-opacity: 1.0;stroke-linecap: square;" transform="matrix(1,0,0,1,0,0)" /><line x1="360" y1="120" x2="211" y2="120" style="stroke-width: 1.0;stroke: rgb(0,0,0);stroke-opacity: 1.0;stroke-linecap: square;" transform="matrix(1,0,0,1,0,0)" /><line x1="210" y1="120" x2="210" y2="21" style="stroke-width: 1.0;stroke: rgb(0,0,0);stroke-opacity: 1.0;stroke-linecap: square;" transform="matrix(1,0,0,1,0,0)" /><g transform="matrix(1,0,0,1,0,0)"><text x="213" y="33" style="fill: rgb(0,0,0); fill-opacity: 1.0; font-family: Arial; font-size: 10px; font-weight: bold;" >lbl=battery</text></g><g transform="matrix(1,0,0,1,0,0)"><text x="213" y="46" style="fill: rgb(0,0,0); fill-opacity: 1.0; font-family: Arial; font-size: 10px; font-weight: bold;" >enb=true</text></g><g transform="matrix(1,0,0,1,0,0)"><text x="213" y="59" style="fill: rgb(0,0,0); fill-opacity: 1.0; font-family: Arial; font-size: 10px; font-weight: bold;" >pOut=-825.7mW</text></g><g transform="matrix(1,0,0,1,0,0)"><text x="213" y="72" style="fill: rgb(0,0,0); fill-opacity: 1.0; font-family: Arial; font-size: 10px; font-weight: bold;" >iOut=-69.2mA</text></g><g transform="matrix(1,0,0,1,0,0)"><text x="213" y="85" style="fill: rgb(0,0,0); fill-opacity: 1.0; font-family: Arial; font-size: 10px; font-weight: bold;" >vTgt=5.0V</text></g></svg>
